<?xml version="1.0" standalone="no"?>
<!DOCTYPE svg PUBLIC "-//W3C//DTD SVG 1.1//EN" "http://www.w3.org/Graphics/SVG/1.1/DTD/svg11.dtd" >
<!--
2013-9-30: Created.
-->
<svg>
<metadata>
Created by iconfont
</metadata>
<defs>

<font id="iconfont" horiz-adv-x="1024" >
  <font-face
    font-family="iconfont"
    font-weight="500"
    font-stretch="normal"
    units-per-em="1024"
    ascent="896"
    descent="-128"
  />
    <missing-glyph />
    
    <glyph glyph-name="shouji1" unicode="&#58926;" d="M722.051282 896 301.948718 896C258.625641 896 223.179487 860.553846 223.179487 817.230769L223.179487-49.230769C223.179487-92.553846 258.625641-128 301.948718-128L722.051282-128C765.374359-128 800.820513-92.553846 800.820513-49.230769L800.820513 817.230769C800.820513 860.553846 765.374359 896 722.051282 896ZM748.307692-49.230769C748.307692-63.409231 736.229744-75.487179 722.051282-75.487179L301.948718-75.487179C287.770256-75.487179 275.692308-63.409231 275.692308-49.230769L275.692308 3.282051 748.307692 3.282051 748.307692-49.230769ZM748.307692 55.794872 275.692308 55.794872 275.692308 712.205128 748.307692 712.205128 748.307692 55.794872ZM748.307692 764.717949 275.692308 764.717949 275.692308 817.230769C275.692308 831.409231 287.770256 843.487179 301.948718 843.487179L722.051282 843.487179C736.229744 843.487179 748.307692 831.409231 748.307692 817.230769L748.307692 764.717949Z"  horiz-adv-x="1024" />

    
    <glyph glyph-name="sanjiaoxing" unicode="&#58902;" d="M748 462.7l-236-236-236 236L748 462.7 748 462.7z"  horiz-adv-x="1024" />

    
    <glyph glyph-name="weixin" unicode="&#58894;" d="M639.488 499.8144c8.2944 0 16.5888-0.6144 24.7808-1.536C642.048 601.9072 531.2512 678.912 404.6848 678.912 263.2704 678.912 147.456 582.5536 147.456 460.0832c0-70.656 38.5024-128.6144 102.912-173.6704l-25.7024-77.4144 89.9072 45.056c32.1536-6.3488 57.9584-12.9024 90.112-12.9024 8.0896 0 16.0768 0.4096 24.064 1.024-5.0176 17.2032-7.9872 35.2256-7.9872 53.8624 0 112.5376 96.5632 203.776 218.7264 203.776z m-138.3424 69.7344c19.3536 0 32.1536-12.6976 32.1536-32.0512 0-19.2512-12.8-32.1536-32.1536-32.1536-19.2512 0-38.6048 12.9024-38.6048 32.1536 0 19.2512 19.3536 32.0512 38.6048 32.0512z m-180.0192-64.3072c-19.2512 0-38.7072 12.9024-38.7072 32.1536 0 19.3536 19.456 32.0512 38.7072 32.0512 19.2512 0 32.1536-12.6976 32.1536-32.0512 0-19.2512-12.9024-32.1536-32.1536-32.1536zM874.2912 299.3152c0 102.8096-102.912 186.6752-218.5216 186.6752-122.368 0-218.8288-83.8656-218.8288-186.6752 0-103.0144 96.3584-186.6752 218.8288-186.6752 25.6 0 51.5072 6.4512 77.2096 12.9024l70.5536-38.6048-19.3536 64.3072c51.6096 38.6048 90.112 90.0096 90.112 148.0704z m-289.4848 32.1536c-12.8 0-25.7024 12.6976-25.7024 25.7024 0 12.8 12.9024 25.7024 25.7024 25.7024 19.456 0 32.1536-12.9024 32.1536-25.7024 0.1024-13.0048-12.6976-25.7024-32.1536-25.7024z m141.5168 0c-12.6976 0-25.6 12.6976-25.6 25.7024 0 12.8 12.8 25.7024 25.6 25.7024 19.2512 0 32.1536-12.9024 32.1536-25.7024 0.1024-13.0048-12.9024-25.7024-32.1536-25.7024z"  horiz-adv-x="1024" />

    
    <glyph glyph-name="xinxinicon" unicode="&#58911;" d="M1458.889 181.318c-16.449 36.767-10.643 74.502-4.999 110.947 8.708 56.602 19.029 125.783-70.954 166.259 5.967 21.609 5.644 46.443-12.578 55.151l-107.077 51.603c-23.383 11.288-84.5 8.869-91.596-5.967s-26.769-45.798 23.221-57.247c49.991-11.611 96.595-70.148 96.595-70.148 16.771-16.287 35.961-25.963 51.119-26.285 59.989-21.125 56.763-45.798 47.733-103.529-6.289-41.444-14.191-93.047 9.998-146.908 32.413-72.728 34.348-115.301 6.289-142.715-34.348-33.865-80.791-23.060-109.979-3.709-39.509 26.285-40.315 74.825-36.606 151.584 1.935 43.54 4.193 88.532-8.708 126.911-28.543 84.984-115.946 85.951-119.977 85.951l-38.864 0.161v288.655c0 17.577-14.352 32.091-32.091 32.091h-384.927c-17.577 0-32.091-14.513-32.091-32.091v-673.744h-32.091s-32.091 0-32.091-32.091v-32.091h577.471v32.091s0 32.091-32.091 32.091h-32.091v320.907h38.541c4.677-0.161 45.959-2.096 59.505-42.411 9.031-26.93 7.257-64.020 5.322-103.368-3.548-74.986-7.418-159.809 65.31-208.025 29.027-19.351 60.956-29.027 91.757-29.027 36.445 0 71.599 13.546 98.691 40.315 71.922 70.309 24.834 175.128 7.257 214.637zM1312.788 447.396c-8.869 0-15.965 7.257-15.965 16.126s7.095 15.965 15.965 15.965 16.126-7.095 16.126-15.965-7.257-16.126-16.126-16.126zM707.579 597.852c0 17.577 14.352 32.091 32.091 32.091h256.726c17.577 0 32.091-14.513 32.091-32.091v-192.544c0-17.577-14.513-32.091-32.091-32.091h-256.726c-17.739 0-32.091 14.513-32.091 32.091v192.544z"  horiz-adv-x="1834" />

    
    <glyph glyph-name="yinlianqia" unicode="&#58941;" d="M240.3 664h223.3c31.2 0 50.6-25.5 43.3-56.8l-104-446.3c-7.3-31.2-38.5-56.6-69.7-56.6H109.8c-31.2 0-50.5 25.4-43.3 56.6l104 446.3c7.3 31.3 38.5 56.8 69.8 56.8M445.1 664h256.8c31.1 0 17.1-25.5 9.8-56.8l-104-446.3c-7.3-31.2-5-56.6-36.2-56.6H314.6c-31.3 0-50.6 25.4-43.3 56.6l103.9 446.3c7.5 31.3 38.6 56.8 69.9 56.8M691.7 664H915c31.2 0 50.6-25.5 43.3-56.8l-104-446.3c-7.3-31.2-38.5-56.6-69.8-56.6H561.3c-31.3 0-50.6 25.4-43.3 56.6l103.9 446.3c7.4 31.3 38.5 56.8 69.8 56.8M719.2 334.4l-27.2-90h7.3l-5.7-18.6h-7.3l-1.7-5.8h-25.9l1.8 5.8h-52.7l5.3 17.2h5.3l27.6 91.4 5.5 18.5H678l-2.8-9.3s7.1 5.1 13.8 6.8c6.6 1.7 45 2.4 45 2.4l-5.7-18.3h-9.1z m-46.6 0l-7-23s7.8 3.5 12.1 4.7c4.4 1.1 10.8 1.5 10.8 1.5l5 16.8h-20.9z m-10.5-34.5L655 276s8 4.1 12.3 5.4c4.3 1 10.9 1.8 10.9 1.8l5.1 16.8h-21.2z m-16.8-55.8h21.1l6.1 20.2h-21l-6.2-20.2zM730.8 352.7H759l0.3-10.5c-0.1-1.8 1.4-2.6 4.7-2.6h5.7l-5.2-17.4h-15.3c-13.2-1-18.2 4.7-17.9 11.1l-0.5 19.4zM734.5 270.4h-26.8l4.6 15.5H743l4.4 14.1H717l5.2 17.4h84.4l-5.3-17.4H773l-4.4-14.1H797l-4.7-15.5h-30.7l-5.5-6.6h12.5l3-19.4c0.4-1.9 0.4-3.2 1-4 0.6-0.7 4.3-1.1 6.6-1.1h3.7l-5.7-18.9h-9.6c-1.5 0-3.7 0.1-6.7 0.3-2.9 0.2-4.9 1.9-6.9 2.9-1.7 0.8-4.3 3-5 6.6l-3 19.4-13.9-19.1c-4.4-6.1-10.5-10.7-20.6-10.7H692l5.1 16.9h7.5c2.2 0 4.1 0.9 5.5 1.5 1.5 0.6 2.7 1.4 4.2 3.5l20.2 28.7zM440.2 312.7h71.2l-5.3-17h-28.5l-4.4-14.5h29.1l-5.3-17.5h-29.1l-7.1-23.5c-0.8-2.6 6.9-3 9.7-3l14.5 2-5.8-19.4h-32.8c-2.6 0-4.6 0.4-7.5 1-2.8 0.7-4 1.9-5.2 3.8-1.2 1.9-3 3.5-1.8 7.6l9.4 31.2h-16.2l5.4 17.8h16.3l4.3 14.5H435l5.2 17zM488.1 343.2h29.2l-5.4-17.8h-39.8l-4.4-3.7c-1.8-1.8-2.5-1.1-4.9-2.4-2.2-1.1-7-3.4-13.2-3.4h-12.8L442 333h3.9c3.3 0 5.5 0.3 6.6 1 1.3 0.8 2.7 2.6 4.3 5.5l7.3 13.3h29.1l-5.1-9.6zM529.8 352.7h24.9l-3.6-12.5s7.8 6.2 13.3 8.5c5.5 2 17.9 3.9 17.9 3.9l40.2 0.2-13.7-45.6c-2.3-7.9-5-12.9-6.6-15.2-1.5-2.3-3.3-4.3-6.8-6.2-3.4-1.8-6.5-2.9-9.4-3.2-2.6-0.2-6.7-0.3-12.3-0.3h-38.8L524 246.2c-1-3.6-1.5-5.3-0.8-6.3 0.6-0.8 1.9-1.9 3.7-1.9l17.1 1.6-5.8-19.8H519c-6.1 0-10.5 0.1-13.6 0.4-3 0.2-6 0-8.1 1.6-1.8 1.6-4.5 3.6-4.4 5.7 0.2 2 1 5.2 2.2 9.6l34.7 115.6z m52.8-46.1h-40.8l-2.5-8.2h35.3c4.2 0.5 5.1-0.1 5.4 0.1l2.6 8.1z m-38.5 7.4s8 7.2 21.6 9.6c3.1 0.6 22.5 0.4 22.5 0.4l2.9 9.7H550l-5.9-19.7zM602.3 279l-2.3-11c-1-3.4-1.9-6-4.4-8.2-2.7-2.3-5.9-4.7-13.4-4.7l-13.8-0.5-0.1-12.4c-0.2-3.6 0.7-3.2 1.3-3.7 0.6-0.6 1.2-0.9 1.8-1.1l4.4 0.2 13.2 0.7-5.4-18.1h-15.2c-10.6 0-18.5 0.2-21 2.3-2.6 1.6-2.9 3.6-2.8 7.1l1 48.4h24.2l-0.4-9.9h5.8c2 0 3.3 0.2 4.2 0.8 0.7 0.5 1.2 1.3 1.6 2.5l2.4 7.7h18.9zM308.4 521.4c-0.9-3.9-16.4-75.4-16.5-75.4-3.3-14.5-5.7-24.8-13.9-31.4-4.7-3.9-10.2-5.8-16.5-5.8-10.1 0-16.1 5.1-17.1 14.7l-0.2 3.3s3 19.4 3.1 19.5c0 0 16.2 65.2 19.2 73.8 0.1 0.5 0.2 0.7 0.3 1-31.7-0.3-37.3 0-37.7 0.5-0.2-0.6-1-4.7-1-4.7l-16.6-73.4-1.5-6.5-2.7-20.4c0-6 1.2-10.9 3.5-15.1 7.6-13.3 29.1-15.2 41.3-15.2 15.8 0 30.5 3.3 40.4 9.4 17.3 10.2 21.9 26.3 25.9 40.4l1.9 7.3s16.8 67.7 19.6 76.5c0.1 0.5 0.1 0.7 0.2 1-22.7-0.2-29.5 0-31.7 0.5M423.2 479.5c-2-8.9-7.8-16.4-15.2-20.1-6.2-3.1-13.7-3.3-21.5-3.3h-5l0.4 2s9.3 40.3 9.2 40.1l0.2 2.1 0.2 1.6 3.7-0.4s19-1.7 19.5-1.7c7.6-2.9 10.7-10.5 8.5-20.3m-12.2 42l-9.3-0.1c-24.3-0.3-34-0.2-38 0.3-0.3-1.8-1-4.9-1-4.9s-8.6-40.3-8.6-40.4c0 0-20.8-85.7-21.8-89.8 21.1 0.2 29.9 0.2 33.5-0.1 0.9 4 5.8 28 5.9 28 0 0 4.2 17.6 4.4 18.2 0 0 1.3 1.8 2.7 2.6h1.9c18.3 0 38.9 0 55.1 11.9 10.9 8.2 18.5 20.2 21.9 34.8 0.9 3.6 1.5 8 1.5 12.2 0 5.6-1.1 11.1-4.4 15.5-8.4 11.5-24.8 11.7-43.8 11.8M491.9 409.6c-11.6 29.2 20.6 52.9 52.4 39.3v0.1l6.5 22.8c-93.6 42.7-152.4-115.5-26.2-91.8l7.4 25.8c-12.6-2.2-33.7-7.1-40.1 3.8M593.1 400.1c-1.1 0-7.7 0-7.6 9.7 0.1 4.8 1.3 9.8 2.6 15.3 4.1 15.2 8.6 28.3 19.4 28.3 8.4 0 11.7-9.5 7.7-25.2-0.9-3.3-4.4-16.4-8.7-21.8-2.9-3.9-9.5-6.3-13.4-6.3z m69.1 75.3c-16.5-3.1-20.8-3.7-36.7-6l-1.2-1c-0.3-1.9-0.6-3.7-0.9-5.5-2.4 4.8-6.1 9-12.5 11.4-7.1 2.7-24.2-0.9-39.2-14-10.5-9.4-15.9-22.2-19.1-34.5-3.3-12.4-7.4-35.2 13.4-43.4 6.6-2.8 12.6-3.6 18.7-3.4 7.3 0.4 14.1 4.5 20.4 10-0.7-2.5-1.4-5-2.2-7.5l0.9-1.2c14.8 0.6 19.3 0.6 35.1 0.5l1.5 1.1c2.8 13.9 5.4 27.4 12.3 54 3.2 12.7 6.6 25.4 10 38l-0.5 1.5zM842.6 458.3c-3.5 4.4-12.2 6.8-18.9 7.1-5 0.2-9.7-0.5-14.2-2.3-4.5-1.7-9.5-4.6-14.9-8.7l12.4 44-25.7 0.9-37.2-127.2 25.7-0.9 12.5 39.1c3.1 11 5.4 18 7 20.9 2.8 5.3 6.6 9.8 11.4 13.3 3.6 2.7 7.4 4 11.1 3.8 3-0.1 5.2-1.1 6.8-3 1.6-1.9 2.2-4.3 2-7.3-0.1-1.6-1-5.4-2.6-11.1l-27.6-85c-0.7-1-1.4-1.7-2.3-1.9-1-0.5-7.7-0.5-9.5-0.5h-3.4l-5.1-16.8 17.4-0.3c10.2 0 20.9 0 27.3 12.3l28.7 90.1c2.1 7.5 3.3 13.1 3.6 16.7 0.5 6.9-1 12.4-4.5 16.8M720.3 447.4c7-1.2 13.7-4.3 23.7-5.1l5.9 23.6c-53.2 22.4-96.1-18.7-70.6-43.8 10.2-8.2 18.7-7.2 26.2-10.4 7.8-8.3-1.4-12.4-23.5-8.4 0 0-14 2.4-20.6 3.6l-5.9-26.6c42.4-11 92.5-4.1 81.1 38.7-4 7.4-18.9 13.9-18.9 13.9-1.5 0.6-13.3 2.2-10.2 10.8 2.2 6.2 12.8 3.7 12.8 3.7"  horiz-adv-x="1024" />

    
    <glyph glyph-name="gangtiexia-" unicode="&#58889;" d="M228.242963 302.975862h141.946254a13.518691 13.518691 0 0 1 10.814952 5.407476l56.778501 75.704669h148.705599l56.778501-75.704669a13.518691 13.518691 0 0 1 10.814953-5.407476h141.946253a13.518691 13.518691 0 0 1 13.518691 13.518691v181.691204a13.518691 13.518691 0 0 1-18.926167 12.437195l-208.728586-92.738218a12.977943 12.977943 0 0 1-6.488971-6.759346h-126.264572a12.977943 12.977943 0 0 1-6.488972 6.759346L233.65044 510.622952a13.518691 13.518691 0 0 1-18.926167-12.437195v-181.961578a13.518691 13.518691 0 0 1 13.51869-13.248317zM782.509285 477.366973v-147.353729h-121.668217l-52.722894 70.297192z m-540.747631 0l174.391111-77.597285-52.722894-69.756444H241.761654zM961.496751 548.74566L890.658812 566.319958V699.884623a13.518691 13.518691 0 0 1-7.570467 12.166822l-270.373816 135.186908-94.630835 47.315417a13.518691 13.518691 0 0 1-12.166822 0l-94.630835-47.315417-270.373816-135.186908a13.518691 13.518691 0 0 1-7.570467-12.166822v-133.564665l-70.83794-17.844671a13.518691 13.518691 0 0 1-10.274205-13.248317v-144.920366a13.518691 13.518691 0 0 1 5.407477-10.814952l75.704668-56.778501v-228.736248a13.518691 13.518691 0 0 1 6.759346-11.626074l365.004651-208.458212a13.518691 13.518691 0 0 1 13.51869 0l365.004651 208.458212a13.518691 13.518691 0 0 1 6.759346 11.626074v229.006621l75.704668 56.778502a13.518691 13.518691 0 0 1 5.407476 10.814952v144.920365a13.518691 13.518691 0 0 1-10.003831 13.248317zM512.13547 867.246015l81.112144-40.556072v-172.228121h-162.224289V826.689943zM160.64951 691.503035l243.336434 121.668217v-172.498494a13.518691 13.518691 0 0 1 13.51869-13.518691h189.261671a13.518691 13.518691 0 0 1 13.518691 13.518691V813.171252l243.336434-121.668217v-424.48689l-203.591483-114.097751a13.518691 13.518691 0 0 0-16.222429 2.162991l-48.937661 48.937661a13.518691 13.518691 0 0 1-9.463083 4.055607h-146.542608a13.518691 13.518691 0 0 1-9.463084-4.055607l-48.93766-48.937661a13.518691 13.518691 0 0 0-16.222429-2.162991L160.64951 267.016145V691.503035zM79.537365 397.336324v127.616441l54.074763 13.51869v-181.42083z m432.598105-495.595204l-104.905041 62.997099 18.926167 94.901209h171.957747l18.926167-94.901209z m351.48596 200.346997l-221.165781-126.264572-20.007662 99.767938a13.518691 13.518691 0 0 1-13.248317 10.814953h-194.1284a13.518691 13.518691 0 0 1-13.248317-10.814953l-20.007662-99.767938L160.64951 102.088117v135.186908l207.376716-119.234853a13.518691 13.518691 0 0 1 16.222429 2.162991l56.237754 56.237753a13.518691 13.518691 0 0 0 9.463083 4.055608h124.101582a13.518691 13.518691 0 0 0 9.463083-4.055608l56.237754-56.237753a13.518691 13.518691 0 0 1 16.222429-2.162991L863.62143 237.815772z m81.112145 295.248207l-54.074763-40.285699v181.42083l54.074763-13.51869z"  horiz-adv-x="1024" />

    
    <glyph glyph-name="icon-yjt" unicode="&#58881;" d="M624.601 384.246l-292.155-292.16c-12.27799999-12.27-12.278-32.186 1e-8-44.457 12.27-12.27799999 32.186-12.278 44.45699999 0l314.38699999 314.389c12.28099999 12.27 12.281 32.186 1e-8 44.457l-314.388 314.38800001c-6.137 6.14-14.183 9.211-22.228 9.21099999s-16.092-3.071-22.228-9.211c-12.28099999-12.27-12.281-32.186 0-44.457l292.157-292.161z"  horiz-adv-x="1024" />

    
    <glyph glyph-name="arrow-st" unicode="&#58882;" d="M399.13500001 384.247l292.15499999-292.159c12.28-12.27 12.28-32.186 0-44.457-12.27-12.28-32.186-12.28-44.457 0l-314.388 314.388c-12.28 12.27-12.28 32.186 0 44.457l314.388 314.387c6.136 6.14 14.183 9.211 22.228 9.211s16.092-3.071 22.228-9.211c12.28-12.27 12.28-32.186 0-44.457l-292.155-292.16z"  horiz-adv-x="1024" />

    
    <glyph glyph-name="arrowdown" unicode="&#58899;" d="M512.133 271.01800000000003l-292.16 292.15500001c-12.27 12.28-32.186 12.28-44.45700001-1e-8-12.28099999-12.27-12.281-32.186 0-44.457l314.38800001-314.388c12.27-12.28 32.186-12.28 44.45699999 0l314.38700002 314.388c6.14 6.136 9.211 14.183 9.21099999 22.228s-3.071 16.092-9.211 22.228c-12.27 12.28-32.186 12.28-44.457 0l-292.159-292.15499999z"  horiz-adv-x="1024" />

    
    <glyph glyph-name="zh" unicode="&#58883;" d="M243.47623678 568.6100872100001h537.04752644v-369.22017442H243.47623678zM547.57939863 433.00558678l-14.43315228-17.11838991 0.67130941 22.48886519-20.81059164 8.39136759 21.48190105 6.37743938 1.67827352 22.48886519 12.75487876-18.79666344 21.81755575 5.37047525-13.76184287-17.78969931 11.74791465-19.13231813-21.14624635 7.72005819zM491.86071776 496.77998055l-22.15321047-3.35654705 15.44011639 16.44708052-10.06964113 20.13928224 20.47493695-9.39833172 16.1114258 15.7757711-2.68523763-22.48886517 20.13928224-10.40529584-22.15321048-4.36351114-3.69220175-22.15321047-11.41225992 19.80362753z m9.06267701-205.42067887l-13.76184288-17.7896993v22.48886517l-21.14624633 7.72005819 21.48190104 7.04874877 1.00696412 22.48886518 13.42618817-18.12535402 21.81755576 6.04178467-13.76184287-17.78969931 12.41922404-18.79666342-21.48190105 6.71309407zM542.20892337 354.12673134l-20.47493696-9.39833172 10.06964113 20.13928225-15.44011639 16.4470805 22.15321046-3.35654705 11.07660525 19.80362754 3.69220174-22.15321046 22.15321046-4.36351115L555.63511152 360.50417072000005l2.68523763-22.48886516-16.11142578 16.11142578z m-155.40812797 16.1114258L330.74645982 329.95959264l20.81059165 65.78832201-55.71868086 41.28552859 69.14486903 0.67130941 21.81755576 65.45266728L408.95400586 437.70475265l69.14486902-0.6713094-55.71868085-40.9498739L443.19078568 330.29524734999995 386.8007954 370.23815714z"  horiz-adv-x="1024" />

    
    <glyph glyph-name="qitiantuihuan" unicode="&#58901;" d="M906.921619 748.770349C775.890773 754.463366 650.438627 798.830031 534.040435 880.521395L511.965705 896l-22.00614-15.478605C373.629964 798.830031 248.166386 754.463366 117.98149 748.804644H76.82715v-346.50811C76.82715 148.477142 251.916003-68.840636 502.637388-126.250941l10.940195-1.749059 7.865052 1.749059C772.10686-68.840636 947.17285 148.477142 947.17285 402.296534V748.804644zM683.282076 603.884209L474.503824 93.650416h-69.939515l198.443941 474.052269H336.328127V627.353614h346.953949z"  horiz-adv-x="1024" />

    
    <glyph glyph-name="gangtiexia" unicode="&#58905;" d="M387.4-24.1c20.7-7.2 37.5-4.3 51.2 8.8 4.2 4 7.6 8.5 10.1 12.5l-90.3 42.6c0.5-22.4 5.3-55.7 29-63.9zM668.4 39.8L578-2.8c2.5-4 5.9-8.5 10.1-12.5 13.7-13.1 30.5-16 51.2-8.8 23.7 8.2 28.6 41.5 29.1 63.9zM513 235.4c-37.6 0-74.4 7-109.5 20.7-5.6-4-15.8-11.6-27.3-21.2l-0.1-0.1c-0.8-0.6-1.5-1.3-2.3-1.9-0.2-0.2-0.5-0.4-0.7-0.6l-2.1-1.8c-0.4-0.4-0.8-0.7-1.3-1.1-0.3-0.2-0.6-0.5-0.8-0.7-4-3.5-8-7.1-12-10.9-15.2-14.4-26.4-27.8-32.8-39.1-0.2-0.3-0.4-0.7-0.6-1-0.8-1.4-1.5-2.8-2.1-4.1-0.3-0.7-0.6-1.3-0.9-2-0.5-1.3-1-2.5-1.4-3.7-0.4-1.2-0.7-2.3-0.9-3.4-0.5-2.4-0.7-4.6-0.5-6.5 0-0.2 0-0.4 0.1-0.5 0-0.2 0-0.4 0.1-0.5 0.1-0.4 0.1-0.7 0.2-1.1 3.3-12 13.2-14.3 22.1-13.7h0.1c0.4 0.1 0.7 0.1 1.1 0.2 3 13.4 6.4 26.3 10.3 38.6 2.5 7.9 10.9 12.3 18.8 9.8s12.3-10.9 9.8-18.8c-4.8-15.4-8.9-31.9-12.4-49.4-0.2-0.8-0.3-1.7-0.5-2.5-0.3-1.4-0.5-2.8-0.8-4.3-0.2-0.9-0.3-1.7-0.5-2.6-0.3-1.4-0.5-2.8-0.7-4.2-0.2-0.9-0.3-1.9-0.5-2.9-0.2-1.4-0.5-2.8-0.7-4.2-0.2-1-0.3-2-0.5-3-0.2-1.4-0.4-2.7-0.6-4.1-0.2-1.1-0.3-2.2-0.5-3.4-0.2-1.3-0.4-2.6-0.5-3.9-0.2-1.3-0.3-2.6-0.5-3.9-0.2-1.2-0.3-2.4-0.5-3.6l-0.3-2.7c0-0.4-0.1-0.8-0.1-1.2h304.4c-4.2 35.1-10.8 67.2-19.7 95.6-2.5 7.9 1.9 16.3 9.8 18.8s16.3-1.9 18.8-9.8c3.8-12.3 7.3-25.2 10.3-38.7 9.2-0.9 19.9 1.1 23.4 13.6s-11.1 35.7-39 62.1c-18.4 17.4-37.8 31.9-46.3 38-35-13.3-71.8-20.3-109.4-20.3z m-0.3-103.3c-22.4 0-40.7 18.2-40.7 40.7s18.2 40.7 40.7 40.7c22.4 0 40.7-18.2 40.7-40.7s-18.3-40.7-40.7-40.7zM384 56.5C426.8 35 486.6 8 513 8c26.3 0 85.9 27 128.5 48.5H384zM482.416591 167.781594a30.7 30.7 0 1 1 60.607938 9.830457 30.7 30.7 0 1 1-60.607938-9.830457ZM512.7 213.4c-22.4 0-40.7-18.2-40.7-40.7s18.2-40.7 40.7-40.7c22.4 0 40.7 18.2 40.7 40.7s-18.3 40.7-40.7 40.7z m0-71.3c-16.9 0-30.7 13.8-30.7 30.7s13.8 30.7 30.7 30.7 30.7-13.8 30.7-30.7-13.8-30.7-30.7-30.7zM513 796.4c-152.2 0-276-116.3-276-259.3 0-101.8 60.4-192.7 147.1-239.2l-8.5 83.1-75.7 43.4c-1.8 1-3.2 2.6-4.1 4.5C280.6 462 272.6 496.3 272 531c-0.5 27.7 3.8 55.6 12.6 83 15 46.6 38 75.2 39 76.4 1.2 1.5 2.7 2.5 4.5 3.2l101.6 35c5 1.7 10.5-0.8 12.5-5.7l36.6-90.7H549l36.6 90.7c2 4.9 7.5 7.4 12.5 5.7l101.6-35c1.8-0.6 3.3-1.7 4.5-3.2 1-1.2 24-29.9 39-76.4 8.8-27.4 13.1-55.3 12.6-83-0.6-34.6-8.6-69-23.8-102.1-0.9-1.9-2.3-3.5-4.1-4.5L652.2 381l-8.4-82.1C729.4 345.7 789 436 789 537.2c0 142.9-123.8 259.2-276 259.2zM794.9 422.5c16 36.9 24.1 75.5 24.1 114.7 0 77.4-31.9 150.2-89.9 204.8C671.3 796.4 594.6 826.4 513 826.4s-158.3-30-216.1-84.4c-58-54.7-89.9-127.4-89.9-204.8 0-39.2 8.1-77.8 24.1-114.7 15.5-35.7 37.5-68.1 65.5-96.1 22.6-22.6 48-41.4 75.8-56-10.1-7.8-23.1-18.4-35.8-30.5-0.9-0.9-1.9-1.8-2.8-2.7-0.7-0.7-1.4-1.4-2.2-2.1l-0.7-0.7c-32.7-32.4-46.6-59.5-42.5-82.5 0-0.2 0.1-0.4 0.1-0.6 0-0.2 0.1-0.3 0.1-0.5 0.1-0.3 0.1-0.6 0.2-0.8 0.2-0.7 0.3-1.4 0.5-2 6.5-23.3 22.9-36.3 45-36.3h1.2c-0.1-0.7-0.2-1.5-0.4-2.2l-0.3-1.6c-0.1-0.3-0.1-0.7-0.2-1.1-0.1-0.9-0.3-1.8-0.4-2.7-0.1-0.9-0.3-1.7-0.4-2.6l-0.2-1.4c0-0.3-0.1-0.5-0.1-0.8-0.2-1-0.3-2.1-0.5-3.1-0.1-0.9-0.3-1.8-0.4-2.7l-0.2-1.2c0-0.2 0-0.3-0.1-0.5-0.2-1.2-0.3-2.4-0.5-3.7-0.1-1-0.3-1.9-0.4-2.9l-0.1-0.9v-0.3c-0.1-0.5-0.1-0.9-0.2-1.4-0.2-1.9-0.5-3.9-0.7-5.9l-0.1-0.5v-0.1c0-0.4-0.1-0.8-0.1-1.2-0.3-2.3-0.5-4.6-0.8-7 0-0.5-0.1-0.9-0.1-1.4v-0.8c-0.1-0.3-0.1-0.5-0.2-0.8-0.5-3.9-12-96.5 48.1-117.5 10.6-3.7 20.8-5.5 30.6-5.5 11.1 0 21.7 2.4 31.6 7.2 21 10.2 33.2 28.9 39.1 40.3 13.6-4 25.8-6.5 35.4-6.5 9.3 0 20.9 2.4 33.8 6.2 5.9-11.5 18.1-29.9 38.9-40 9.9-4.8 20.4-7.2 31.6-7.2 9.8 0 20 1.8 30.6 5.5 55.2 19.2 49.1 118.6 48.9 120.5-1.5 15-3.5 29.6-5.9 43.8 5.3 0.4 10.3 1.6 14.9 3.5 0.6 0.2 1.2 0.5 1.8 0.7 0.4 0.1 0.7 0.3 1.1 0.4 0.3 0.1 0.7 0.3 1 0.5 0.6 0.3 1.3 0.6 1.9 0.9 0.1 0 0.2 0.1 0.3 0.1 10.7 5.5 18.4 14.6 22.5 26.9 0.3 1 0.7 2.1 1 3.1 7 25.1-8.5 55.2-47.3 91.9-12.7 12.1-25.7 22.7-35.8 30.5 27.8 14.6 53.2 33.4 75.8 56 28.4 28.2 50.4 60.5 65.9 96.3z m-87.1-266.6c-3.5-12.5-14.1-14.5-23.4-13.6-3 13.5-6.5 26.4-10.3 38.7-2.5 7.9-10.9 12.3-18.8 9.8s-12.3-10.9-9.8-18.8c8.9-28.4 15.5-60.5 19.7-95.6H360.8c0 0.4 0.1 0.8 0.1 1.2l0.3 2.7c0.1 1.2 0.3 2.4 0.5 3.6 0.2 1.3 0.3 2.6 0.5 3.9 0.2 1.3 0.4 2.6 0.5 3.9 0.2 1.1 0.3 2.3 0.5 3.4 0.2 1.4 0.4 2.7 0.6 4.1 0.2 1 0.3 2 0.5 3 0.2 1.4 0.5 2.8 0.7 4.2 0.2 1 0.3 1.9 0.5 2.9 0.2 1.4 0.5 2.8 0.7 4.2 0.2 0.9 0.3 1.7 0.5 2.6 0.3 1.4 0.5 2.8 0.8 4.3 0.2 0.8 0.3 1.7 0.5 2.5 3.5 17.5 7.6 34 12.4 49.4 2.5 7.9-1.9 16.3-9.8 18.8s-16.3-1.9-18.8-9.8c-3.8-12.3-7.3-25.1-10.3-38.6-0.4 0-0.8-0.1-1.1-0.2h-0.1c-8.9-0.6-18.8 1.7-22.1 13.7-0.1 0.4-0.2 0.7-0.2 1.1 0 0.2-0.1 0.3-0.1 0.5s-0.1 0.4-0.1 0.5c-0.2 1.9 0 4.1 0.5 6.5 0.2 1.1 0.5 2.2 0.9 3.4 0.4 1.2 0.9 2.4 1.4 3.7 0.3 0.6 0.6 1.3 0.9 2 0.6 1.3 1.3 2.7 2.1 4.1 0.2 0.3 0.4 0.7 0.6 1 6.5 11.3 17.7 24.7 32.8 39.1 4 3.8 8 7.4 12 10.9 0.3 0.2 0.6 0.5 0.8 0.7 0.4 0.4 0.8 0.7 1.3 1.1l2.1 1.8c0.2 0.2 0.5 0.4 0.7 0.6 0.8 0.7 1.5 1.3 2.3 1.9l0.1 0.1c11.5 9.6 21.7 17.2 27.3 21.2 35.1-13.8 71.8-20.7 109.5-20.7 37.6 0 74.4 7 109.5 20.8 8.5-6.1 27.9-20.6 46.3-38 27.8-26.9 42.4-50.1 38.9-62.6zM588.1-15.4c-4.2 4-7.6 8.5-10.1 12.5l90.3 42.6c-0.5-22.4-5.3-55.7-29-63.9-20.7-7.2-37.5-4.3-51.2 8.8z m-149.4 0c-13.7-13.1-30.5-16-51.2-8.8-23.7 8.3-28.6 41.5-29 63.9l90.3-42.6c-2.6-3.9-5.9-8.4-10.1-12.5zM395 388.2c-0.3 3.2-2.2 6-5 7.7l-77.3 44.4c-24.2 54.4-27.3 110.5-9.3 166.9 11.6 36.3 28.7 61.3 34.1 68.5l89.7 30.9 35.6-88.2c1.5-3.8 5.2-6.3 9.3-6.3h83.7c4.1 0 7.7 2.5 9.3 6.3l35.6 88.2 89.7-30.9c5.3-7.3 22.5-32.3 34.1-68.5 18-56.4 14.9-112.6-9.3-166.9l-77.3-44.4c-2.8-1.6-4.6-4.4-5-7.7L622.4 287c-15-6.4-62.2-24.3-119.7-23.8-30.4 0.3-80.6 17.9-97.4 24.2L395 388.2zM513.1 8c-26.4 0-86.3 27-129.1 48.5h257.5C599 35 539.4 8 513.1 8z m130.6 291l8.4 82.1 75.7 43.4c1.8 1 3.2 2.6 4.1 4.5 15.2 33.1 23.2 67.4 23.8 102.1 0.5 27.7-3.8 55.6-12.6 83-15 46.6-38 75.2-39 76.4-1.2 1.5-2.7 2.5-4.5 3.2l-101.6 35c-5 1.7-10.5-0.8-12.5-5.7L549 632.2h-70.2l-36.6 90.7c-2 4.9-7.5 7.5-12.5 5.7l-101.6-35c-1.8-0.6-3.3-1.7-4.5-3.2-1-1.2-24-29.9-39-76.4-8.8-27.4-13.1-55.3-12.6-83 0.6-34.6 8.6-69 23.8-102.1 0.9-1.9 2.3-3.5 4.1-4.5l75.7-43.4 8.5-83.1C297.4 344.4 237 435.3 237 537.2c0 143 123.8 259.3 276 259.3s276-116.3 276-259.3C789 436 729.4 345.7 643.7 299zM502.7 263.2c57.5-0.5 104.7 17.4 119.7 23.8l10.4 101.3c0.3 3.2 2.2 6 5 7.7l77.3 44.4c24.2 54.4 27.3 110.5 9.3 166.9-11.6 36.3-28.7 61.3-34.1 68.5l-89.7 30.9-35.6-88.2c-1.5-3.8-5.2-6.3-9.3-6.3H472c-4.1 0-7.7 2.5-9.3 6.3l-35.6 88.2-89.7-30.9c-5.3-7.3-22.5-32.3-34.1-68.5-18-56.4-14.9-112.6 9.3-166.9l77.3-44.4c2.8-1.6 4.6-4.4 5-7.7l10.4-100.9c16.8-6.3 67-23.9 97.4-24.2z m208.1 300.2l3-9.6c6.5-21 4.4-43.2-5.8-62.7s-27.4-33.7-48.4-40.2c-8-2.5-16.3-3.7-24.4-3.7-13.2 0-26.2 3.2-38.2 9.5-19.4 10.2-33.7 27.4-40.2 48.4l-3 9.6 157 48.7zM392.6 447.2c-8.2 0-16.4 1.2-24.4 3.7-21 6.5-38.2 20.8-48.4 40.2-10.2 19.4-12.3 41.7-5.8 62.7l3 9.6 157-48.7-3-9.6c-6.5-21-20.8-38.2-40.2-48.4-12-6.3-25-9.5-38.2-9.5zM448.2 501.7l-117.4 36.4c-1.8-12.9 0.4-25.9 6.6-37.6 7.7-14.7 20.8-25.5 36.6-30.4 15.9-4.9 32.7-3.4 47.4 4.4 11.8 6.1 21.1 15.6 26.8 27.2zM471 505.1l3 9.6-157.1 48.7-3-9.6c-6.5-21-4.4-43.2 5.8-62.7 10.2-19.4 27.4-33.7 48.4-40.2 8-2.5 16.3-3.7 24.4-3.7 13.2 0 26.2 3.2 38.2 9.5 19.6 10.3 33.8 27.5 40.3 48.4zM374.1 470c-15.9 4.9-28.9 15.7-36.6 30.4-6.2 11.7-8.4 24.8-6.6 37.6l117.4-36.4c-5.8-11.6-15-21.2-26.7-27.3-14.8-7.6-31.7-9.2-47.5-4.3zM606.2 474.4c14.7-7.7 31.6-9.3 47.4-4.4 15.9 4.9 28.9 15.7 36.6 30.4 6.2 11.7 8.4 24.8 6.6 37.6l-117.4-36.4c5.9-11.5 15.1-21 26.8-27.2zM596.9 456.7c12-6.3 25.1-9.5 38.2-9.5 8.2 0 16.4 1.2 24.4 3.7 21 6.5 38.2 20.8 48.4 40.2s12.3 41.7 5.8 62.7l-3 9.6-157.1-48.7 3-9.6c6.6-20.9 20.9-38.1 40.3-48.4z m100 81.4c1.8-12.9-0.4-25.9-6.6-37.6-7.7-14.7-20.8-25.5-36.6-30.4-15.9-4.9-32.7-3.4-47.4 4.4-11.7 6.2-21 15.7-26.7 27.3l117.3 36.3z"  horiz-adv-x="1024" />

    
    <glyph glyph-name="weibo" unicode="&#59095;" d="M852.16136 298.42668375000005c-21.86259281 65.72748-89.02093687 89.73467625-104.31002062 91.16215406v0.00254063c-15.29077687 1.42917094-29.14899563 9.860265-19.0050975 27.29310469 10.14728437 17.43368625 28.86282281 68.15994937-7.14077532 103.88076093-36.01121812 35.86643813-114.74855812 22.2918525-170.47522687-0.85851843-55.58442844-23.14783125-52.58299969-7.00276969-50.86934813 8.86035281 1.8567375 16.71740812 31.86425156 110.16979125-59.87278875 121.457535C320.31495969 664.94219719 166.13634875 516.192405 111.69068469 430.45483594 29.38465062 300.99715969 42.38773719 213.40200749999997 42.38773719 213.40200749999997h0.57234562c9.860265-120.88942219 187.90467938-217.19591438 406.10050688-217.19591531 187.61935313 0 345.65621813 71.30615812 392.38368 168.18499687 0 0 0.14054625 0.42841313 0.56726625 1.14638438 4.85985937 10.42668375 8.57672063 21.00407438 10.86610312 32.00564437 6.57012375 26.00702063 11.57560875 63.72511594-0.71627906 100.88356594zM422.05873719 49.07780531000003c-155.32668938 0-281.35791 83.45157281-281.35791 186.33072844 0 102.88169625 125.88898125 186.331575 281.35791 186.331575 155.32160906 0 281.35452375-83.44987875 281.35452375-186.331575 0-103.0222425-126.03291375-186.33072844-281.35452375-186.33072844zM804.58553937 462.03630094c2.85156937-1.28693156 5.85469125-1.8567375 8.85781313-1.8567375 8.85781312 0 17.43368625 5.287425 21.00407531 14.00384531 5.85977063 13.86075844 8.85696656 28.57580344 8.85696563 43.86827344 0 62.014005-50.43670312 112.456635-112.45832813 112.456635-15.14515031 0-29.8618875-2.99973563-43.72603312-8.85696657-11.57391563-4.86070594-17.00104031-18.29135906-12.14710782-30.00920812 4.86070594-11.57391563 18.29135906-17.0044275 30.00582094-12.14626125 8.28970031 3.43238156 17.00696719 5.28996562 26.01040688 5.28996562 36.86550375 0 66.72823781-30.00920719 66.72823781-66.731625 0-9.00343969-1.71111094-17.71986-5.287425-26.00532656-4.99532531-11.7170025 0.42671906-25.14850125 12.14710781-30.00412781l0.00846656-0.00846656zM729.56421406 770.8304025c-25.57776094 0-50.86934906-3.71686125-75.161025-10.86017719-18.14742563-5.42797125-28.43440969-24.43306969-23.14783125-42.58049437 5.42712469-18.14996531 24.43222313-28.43695031 42.58472813-23.15037188a197.50586531 197.50586531 0 0 0 55.72412812 8.00183438c107.59931531 0 195.19446844-87.59599969 195.19446844-195.19277438 0-19.28957719-2.86257562-38.43522094-8.29054688-56.72658-5.42627812-18.14996531 4.71507938-37.29730313 22.86165844-42.72527531 3.29014125-1.00245187 6.71490281-1.42917094 10.00250438-1.42917094 14.71673719 0 28.29386344 9.57578531 32.86670343 24.29082938 7.43033531 24.71839594 11.28774281 50.44008937 11.28774282 76.59019687-0.13969969 145.4681175-118.45864594 263.78198344-263.92253063 263.78198344zM396.05002344 353.72493937c-82.87753312 0-150.03757031-58.72640344-150.03757032-131.32033874 0-72.58546875 67.1574975-131.32033969 150.03757032-131.32033969 82.87837969 0 150.03757031 58.73233031 150.03757125 131.32033969 0.00084656 72.59139563-67.15834406 131.32033969-150.03757125 131.32033875z m-49.01261157-216.62441531c-29.00760281 0-52.58130656 23.57455031-52.58130656 52.58130656s23.5779375 52.58215312 52.58130656 52.58215219c29.01098906 0 52.58384625-23.57709094 52.58384625-52.58215219s-23.57624438-52.58130656-52.58384625-52.58130656z m98.31224344 94.73423531c-6.28649062-11.00072344-19.00425094-15.57525656-28.29217031-10.142205-9.28622625 5.28657844-11.57391563 18.57414469-5.28657844 29.57571469 6.28733719 11.00665031 19.00425094 15.58033594 28.29132375 10.14813188 9.28791937-5.42881875 11.57391563-18.71977125 5.287425-29.58164157z"  horiz-adv-x="1025" />

    
    <glyph glyph-name="xiangqing-shiwutiantui" unicode="&#59055;" d="M722.4 665.4c38.6 33.5 70 64 87.2 81.2-65 36.1-306.7 147.5-594.2-0.7 42.1-42.1 72.8-69.1 86.4-80.7 44.7 19.2 230 88 420.6 0.2zM301.8 103c-13.6-11.6-44.4-38.6-86.4-80.7 288.1-148.6 529.3-36.9 594.2-0.8-17.3 17.2-48.7 47.7-87.3 81.2-190.5-87.7-375.8-18.9-420.5 0.3z m582.1 568.1c-42.3-41.9-69.4-72.6-81-86.2 19.4-44.7 88.3-229.2 0.2-419 33.7-38.5 64.3-69.8 81.5-87 36.2 64.6 148.1 305.5-0.7 592.2z m-662.6-86.2c-11.6 13.6-38.8 44.2-81 86.2-149.2-287.2-37-527.7-0.8-592.2 17.3 17.2 47.9 48.5 81.6 87-88 189.8-19.1 374.3 0.2 419zM430 216.7h-13c-16.5 0-29.8 13.3-29.8 29.8V396.9c0 22.3-23.8 37-43.5 26.4-5.9-3.2-11.8-6.2-17.9-9-19.7-9.2-42.2 5.5-42.2 27.2 0 11.2 6.2 21.7 16.4 26.6 40.9 19.4 72.7 44.7 95.4 75.9 5.7 7.8 15 12 24.7 12h9.9c16.5 0 29.8-13.3 29.8-29.8v-279.6c0-16.6-13.4-29.9-29.8-29.9z m97.2 91.9l11.8 2.5c13.5 2.9 26.5-4.5 32.4-16.9 9.2-19.2 24.6-29.2 46.1-29.9 31.6 3.1 48.3 22.5 50.3 58.3-1 37.8-18.8 57.3-53.3 58.3-16.5-0.9-30.8-5.6-43.2-14.3-4.8-3.4-10.4-5.7-16.3-5.7h-18.4c-17.2 0-30.8 14.5-29.7 31.6l8.2 132.3c1 15.7 14 28 29.7 28h146.5c16.5 0 29.8-13.3 29.8-29.8v-1.8c0-16.5-13.3-29.8-29.8-29.8h-86.7c-15.4 0-28.2-11.7-29.7-27l-0.2-1.9c-1.9-20.1 16.3-36 36-31.8 7.5 1.6 15.1 2.4 23 2.4 68.1-2.1 103.6-37.9 106.6-107.4-2-73.7-42.9-111.5-122.9-113.6-51.3 0-87.9 17.3-109.8 52-10.8 17.3-0.4 40.3 19.6 44.5z"  horiz-adv-x="1024" />

    
    <glyph glyph-name="icon-test" unicode="&#58895;" d="M163.454737 60.963342L13.934893 90.441778l58.053187 33.951106C-73.047656 368.319222 7.975147 682.161044 252.965317 825.389411c163.955928 95.847814 359.746737 91.043412 514.8374 4.209571l-39.601997-23.152641C587.431749 877.665877 414.633435 878.683952 268.808404 793.485895 41.720349 660.689944-33.43422 369.726225 101.031832 143.587613a478.426898 478.426898 0 0 1 62.422905-82.624271z m697.656324 646.134835a478.426898 478.426898 0 0 0 62.422905-82.62427c134.466053-226.161491 59.3458-517.12521-167.776571-649.921161-145.802153-85.232374-318.623346-84.20286-459.392316-12.949007l-39.590558-23.209836c155.079224-86.799524 350.892911-91.649682 514.8374 4.198132 244.99017 143.228366 326.012973 457.081628 180.965798 700.996527l58.030309 34.008301zM433.679456 417.690169q28.265897-9.52873 42.084271-31.194294t13.829813-101.578779q0-59.334361-13.520959-92.061488t-46.694209-49.794192q-33.161811-17.067065-85.095105-17.067065-58.979751 0-92.656319 19.812438t-44.234813 48.547335q-10.592562 28.71202-10.592562 99.679896v39.338899h124.136589v-80.794022q0-32.258126 3.843522-41.020439t17.044187-8.750875q14.447522 0 19.05746 11.061563t4.57562 57.755772v34.397229q0 28.597629-6.451625 41.786855t-19.046021 17.353042q-12.582957 4.152376-48.844751 4.758645v72.191856q44.234813 0 54.690107 3.431715t15.065231 14.699182q4.575621 11.358978 4.57562 35.632646V523.524275q0 26.115355-5.376354 34.408668t-16.735333 8.293312q-12.90325 0-17.661895-8.750874t-4.770085-37.325626v-40.860292H196.83389v42.393125q0 71.253853 32.555541 96.305376t103.534857 25.051524q88.77848 0 120.418898-34.694644t31.640416-96.396889q0-41.763978-11.370417-60.329558t-39.933729-33.928228zM826.896858 464.853379v-165.866249q0-56.543233-6.142771-82.361172t-25.497646-48.227042a109.963604 109.963604 0 0 0-46.694209-32.258126q-27.350773-9.814706-61.130293-9.826146-44.543667 0-74.033542 10.295147t-47.003064 32.097979q-17.513188 21.802833-24.879937 45.927793t-7.378188 76.641646V464.853379q0 68.497042 11.827979 102.596855t47.003063 54.690106q35.175084 20.590293 85.243814 20.590293 40.860293 0 73.118418-14.287375t48.227042-34.86623a115.20269 115.20269 0 0 0 21.665564-46.385355q5.685209-25.81794 5.67377-82.338294z m-124.102272 41.775417q0 39.636314-3.843522 49.611167t-17.97075 9.986292q-13.829813 0-18.302483-10.604t-4.392595-48.993459v-242.690921q0-43.30825 4.140936-52.219271t17.970751-8.911021q13.829813 0 18.130897 10.443854t4.301083 47.003064z"  horiz-adv-x="1024" />

    
    <glyph glyph-name="libao" unicode="&#58897;" d="M916.672 626.56H681.088a128.32 128.32 0 0 1 42.176 97.792c0 34.816-16.896 54.784-30.976 65.344-16.576 12.416-38.656 19.008-64.128 19.008-42.432 0-87.936-17.856-116.224-47.36-28.288 29.44-73.728 47.36-116.224 47.36-25.344 0-47.552-6.592-64.128-19.008-14.08-10.496-30.976-30.464-30.976-65.344a127.808 127.808 0 0 1 42.176-97.792h-235.52a60.224 60.224 0 0 1-60.544-59.84v-61.12c0-33.024 27.136-59.84 60.544-59.84h10.176a52.8 52.8 0 0 1-0.192-4.544v-367.872c0-33.024 27.136-59.904 60.48-59.904h668.416c33.344 0 60.544 26.88 60.544 59.904V441.216c0 1.536-0.128 3.008-0.256 4.544h10.176a60.288 60.288 0 0 1 60.544 59.84v61.056a60.16 60.16 0 0 1-60.48 59.904zM566.016 734.592a119.04 119.04 0 0 0 62.144 18.88c39.168 0 39.168-21.888 39.168-29.12 0-14.464 0-58.496-70.144-83.328-20.48-7.168-41.344-10.816-57.344-12.672v68.096c0.128 18.176 16.448 31.68 26.176 38.144z m-170.24 18.88c39.744 0 88.256-26.24 88.256-56.96v-68.096a266.624 266.624 0 0 0-57.28 12.672c-70.208 24.832-70.208 68.8-70.208 83.264 0 7.232 0 29.12 39.232 29.12zM102.656 505.6v61.056c0 2.496 2.048 4.544 4.608 4.544h376.768v-70.208H107.2a4.608 4.608 0 0 0-4.544 4.608z m70.528-432.256V441.216c0 2.496 2.048 4.544 4.608 4.544h306.24v-376.896H177.728a4.48 4.48 0 0 0-4.544 4.48z m677.632 367.872v-367.872c0-2.496-2.112-4.48-4.672-4.48H539.968V445.76h306.176c2.56 0 4.672-2.048 4.672-4.544z m70.528 64.384a4.589 4.589 0 0 0-4.608-4.608H539.968v70.272h376.768c2.56 0 4.608-2.048 4.608-4.544v-61.12z m0 0"  horiz-adv-x="1024" />

    
    <glyph glyph-name="zhinengjiqirenmoban" unicode="&#58971;" d="M100.352 222.208h823.296c22.528 0 38.912-18.432 38.912-38.912v-77.824c0-22.528-18.432-38.912-38.912-38.912H100.352c-22.528 0-38.912 18.432-38.912 38.912v77.824c0 20.48 18.432 38.912 38.912 38.912zM825.344-80.896H198.656c-61.44 0-112.64 47.104-118.784 108.544-34.816 8.192-59.392 40.96-59.392 77.824v77.824C20.48 220.16 45.056 250.88 79.872 261.12v36.864c0 204.8 163.84 372.736 368.64 376.832-22.528 18.432-34.816 47.104-34.816 75.776 0 55.296 45.056 100.352 100.352 100.352S614.4 805.888 614.4 750.592c0-28.672-14.336-57.344-34.816-75.776 204.8-4.096 368.64-172.032 368.64-376.832V261.12c32.768-10.24 59.392-40.96 59.392-77.824v-77.824c0-36.864-24.576-67.584-59.392-77.824-10.24-61.44-61.44-108.544-122.88-108.544z m-368.64 712.704c-186.368 0-335.872-151.552-335.872-335.872v-73.728h-20.48c-20.48 0-38.912-18.432-38.912-38.912v-77.824c0-20.48 16.384-38.912 38.912-38.912h20.48v-26.624c0-43.008 34.816-77.824 77.824-77.824h626.688c43.008 0 77.824 34.816 77.824 77.824v26.624h20.48c20.48 0 38.912 18.432 38.912 38.912v77.824c0 20.48-16.384 38.912-38.912 38.912h-20.48v73.728c0 186.368-151.552 335.872-335.872 335.872H532.48v61.44l10.24 6.144c18.432 10.24 28.672 30.72 28.672 51.2 0 32.768-26.624 59.392-59.392 59.392-32.768 0-59.392-26.624-59.392-59.392 0-20.48 10.24-40.96 28.672-51.2l10.24-6.144v-61.44h-34.816zM456.704 631.808h110.592c186.368 0 335.872-151.552 335.872-335.872v-258.048c0-43.008-34.816-77.824-77.824-77.824H198.656c-43.008 0-77.824 34.816-77.824 77.824V295.936c0 186.368 149.504 335.872 335.872 335.872zM491.52 730.112h38.912v-137.216H491.52zM354.304 416.768h313.344c65.536 0 116.736-53.248 116.736-116.736 0-65.536-53.248-116.736-116.736-116.736H354.304c-65.536 0-116.736 53.248-116.736 116.736 0 65.536 53.248 116.736 116.736 116.736zM532.48 377.856h98.304c10.24 0 20.48-8.192 20.48-20.48 0-10.24-8.192-20.48-20.48-20.48H532.48c-10.24 0-20.48 8.192-20.48 20.48s8.192 20.48 20.48 20.48zM473.088 377.856c10.24 0 20.48-8.192 20.48-20.48 0-10.24-8.192-20.48-20.48-20.48-10.24 0-20.48 8.192-20.48 20.48s10.24 20.48 20.48 20.48zM452.608 750.592a59.392 59.392 0 1 1 118.784 0 59.392 59.392 0 1 1-118.784 0Z"  horiz-adv-x="1024" />

    
    <glyph glyph-name="erji" unicode="&#58884;" d="M812.916 278.327h26.906V1.5h-26.906zM842.082 78.982l22.352 45.105V718.28l-22.352 45.101H810.47l-22.347-45.101v-594.193l22.347-45.105zM732.169 476.057l67.882 96.063V707.953l-67.882 96.048H562.794v-327.944zM559.41 804.001h27.094v-327.944H559.41zM157.805 278.327h26.902V1.5h-26.902zM155.546 78.982l-22.353 45.105V718.28l22.353 45.101h31.611l22.348-45.101v-594.193l-22.348-45.105zM265.459 476.057l-67.877 96.063V707.953l67.877 96.048h169.38v-327.944zM411.124 804.001h27.093v-327.944h-27.093z"  horiz-adv-x="1024" />

    
    <glyph glyph-name="shouji" unicode="&#58887;" d="M224.78 806.487h486.853v-844.975H224.78zM503.556 806.487h140.316v-844.975H503.556zM268.817 754.22h398.779v-705.869H268.817zM391.366 779.797h153.68v-4.459h-153.68zM391.366 8.363h153.68v-4.444h-153.68zM551.295 783.007h11.122v-11.125h-11.122z"  horiz-adv-x="1024" />

    
    <glyph glyph-name="shoujike" unicode="&#58896;" d="M726 831.8H298c-27.6 0-50-22.4-50-50v-795.6c0-27.6 22.4-50 50-50h428c27.6 0 50 22.4 50 50V781.8c0 27.6-22.4 50-50 50zM388.9 631.4c0-20.9-16.9-37.8-37.8-37.8-10.4 0-19.9 4.2-26.7 11.1-6.9 6.8-11.1 16.3-11.1 26.7v99.5c0 20.9 16.9 37.8 37.8 37.8 10.4 0 19.9-4.2 26.7-11.1 6.9-6.8 11.1-16.3 11.1-26.7v-99.5z"  horiz-adv-x="1024" />

    
    <glyph glyph-name="jubutianchongwuduandian-" unicode="&#58885;" d="M182.3 116.6h251.2V465.1c0 20.2-16.3 36.5-36.5 36.5H182.3v-385zM514.8 86.7H209.4c-29.2 0-53 23.8-53 53V608c0 29.2 23.8 53 53 53h305.4c29.2 0 53-23.8 53-53v-468.4c0-29.2-23.8-52.9-53-52.9zM209.4 631c-12.7 0-23-10.3-23-23v-468.4c0-12.7 10.3-23 23-23h305.4c12.7 0 23 10.3 23 23V608c0 12.7-10.3 23-23 23H209.4zM444.4 631c-8.3 0-15 6.7-15 15V798.5c0 8.3 6.7 15 15 15s15-6.7 15-15V646c0-8.3-6.7-15-15-15zM263.2 631c-8.3 0-15 6.7-15 15V798.5c0 8.3 6.7 15 15 15s15-6.7 15-15V646c0-8.3-6.7-15-15-15zM852.6-45.5c-8.3 0-15 6.7-15 15V620.1c0 12.7-10.3 23-23 23h-76.1c-12.7 0-23-10.3-23-23v-618.8c0-25.8-21-46.8-46.8-46.8H393.9c-25.8 0-46.8 21-46.8 46.8v97.2c0 8.3 6.7 15 15 15s15-6.7 15-15v-97.2c0-9.2 7.5-16.8 16.8-16.8h274.9c9.2 0 16.8 7.5 16.8 16.8V620.1c0 29.2 23.8 53 53 53h76.1c29.2 0 53-23.8 53-53v-650.6c-0.1-8.3-6.8-15-15.1-15z"  horiz-adv-x="1024" />

    
    <glyph glyph-name="umidd17" unicode="&#58886;" d="M938.7008 226.47466699999995L938.7008 646.587733c0 90.555733-73.5232 164.078933-164.1472 164.078933L249.378133 810.666667c-90.555733 0-164.078933-73.48906699-164.078933-164.078933l0-525.2096c0-90.555733 73.454933-164.078933 164.07893301-164.078933l525.20959999 0c80.725333 0 147.8656 58.368 161.553067 135.099733-43.52 18.8416-232.106667 100.283733-330.376533 147.182933-74.786133-90.589867-153.088-144.930133-271.121067-144.930133s-196.81279999 72.704-187.357867 161.655467c6.2464 58.402133 46.2848 153.9072 220.296533 137.5232 91.682133-8.6016 133.666133-25.736533 208.418133-50.414933 19.3536 35.4304 35.4304 74.513067 47.616 116.0192L292.0448 459.434667l0 32.8704 164.0448 0 0 58.9824L256 551.287467l1e-8 36.181333 200.12373299 0L456.123733 672.6656c0 0 1.809067 13.312 16.520533 13.31200001l82.056533-1e-8 0-98.474667 213.333333 0 0-36.181333-213.333333-1e-8 0-58.98239999 174.045867 0c-16.00853301-65.1264-40.277333-124.962133-70.690133-177.220267C708.608 296.82346700000005 938.7008 226.47466699999995 938.7008 226.47466699999995L938.7008 226.47466699999995 938.7008 226.47466699999995 938.7008 226.47466699999995zM321.57013299 151.00586699999997c-124.7232 0-144.452267 78.7456-137.83039999 111.65013299 6.5536 32.733867 42.666667 75.502933 112.0256 75.50293301 79.6672 0 151.04-20.445867 236.714667-62.088533C472.302933 197.66613299999995 398.370133 151.00586699999997 321.57013299 151.00586699999997L321.57013299 151.00586699999997 321.57013299 151.00586699999997zM321.57013299 151.00586699999997"  horiz-adv-x="1024" />

    
    <glyph glyph-name="-hao" unicode="&#58880;" d="M972.8 329.216H64c-32 0-64 25.6-64 57.6s32 51.2 64 51.2h908.8c32 0 57.6-25.6 57.6-51.2s-25.6-57.6-57.6-57.6Z"  horiz-adv-x="1030" />

    
    <glyph glyph-name="yijia" unicode="&#58888;" d="M482.818377 206.26297v306.398342H320.43401v-62.924122h99.459222v-243.47422h-99.459222v-62.925145h259.522731v62.925145zM833.405127 435.447742h-72.093968v-420.684248H145.293107V641.079076h420.108127V713.173045H73.199139V-57.32945099999995H833.405127v72.092945zM827.397297 707.086419V828.823018h-62.925145v-121.736599H642.735553v-62.925144h121.736599v-121.736599h62.925145V644.1612749999999h121.736598v62.925144z"  horiz-adv-x="1024" />

    
    <glyph glyph-name="xinyongqia" unicode="&#61169;" d="M883.4 68.79999999999995H140.6V624.2h742.8v-555.4z m-692.3 50.5h641.8V573.7H191.1v-454.4zM165.9 441.2h692.3v-50.5H165.9zM735.4 195.29999999999995H533.5v50.5l25.2 0.3h176.7z"  horiz-adv-x="1024" />

    
    <glyph glyph-name="guanbi" unicode="&#58890;" d="M566.613333 384l279.893334 279.893333c13.653333 13.653333 13.653333 34.133333 0 47.786667-13.653333 13.653333-34.133333 13.653333-47.786667 0l-286.72-273.066667-273.066667 273.066667c-13.653333 13.653333-34.133333 13.653333-47.786666 0-13.653333-13.653333-13.653333-34.133333 0-47.786667l279.893333-279.893333-279.893333-279.893333c-13.653333-13.653333-13.653333-34.133333 0-47.786667 13.653333-13.653333 34.133333-13.653333 47.786666 0l279.893334 279.893333 279.893333-279.893333c13.653333-13.653333 34.133333-13.653333 47.786667 0 13.653333 13.653333 13.653333 34.133333 0 47.786667L566.613333 384z m0 0"  horiz-adv-x="1030" />

    
    <glyph glyph-name="fangdajing" unicode="&#59919;" d="M793.796608 140.56106699999998l152.439467-152.3712a51.2 51.2 0 1 0-72.362667-72.362667l-160.426667 160.290133a443.733333 443.733333 0 1 0 80.349867 64.443734zM477.995008 76.79999999999995a375.466667 375.466667 0 1 1 0 750.933333 375.466667 375.466667 0 0 1 0-750.933333z"  horiz-adv-x="1024" />

    
    <glyph glyph-name="shangcheng" unicode="&#59033;" d="M785.066667 725.333333H204.8c-18.875733 0-34.133333-14.6432-34.133333-32.768v-617.130666c0-18.090667 15.2576-32.768 34.133333-32.768h614.4c18.875733 0 34.133333 14.677333 34.133333 32.768V692.565333c0 18.1248-15.2576 32.768-34.133333 32.768m-34.133333-68.266666v-546.133334H238.933333v546.133334h515.413334M512 329.728c-78.336 0-146.193067 46.1824-168.925867 114.926933l-10.752 32.426667 64.853334 21.4016 10.683733-32.426667c13.277867-40.106667 56.1152-68.096 104.1408-68.096 48.0256 0 90.862933 27.989333 104.1408 68.096l10.683733 32.426667 64.853334-21.435733-10.752-32.392534c-22.7328-68.744533-90.589867-114.961067-168.925867-114.961066"  horiz-adv-x="1024" />

    
    <glyph glyph-name="addTodo-nav" unicode="&#58891;" d="M853.95951925 420.4933895h-310.08967642v300.83326917c0 13.88461268-13.88461268 32.39742862-32.39742936 32.39742862-18.51281666 0-32.39742862-18.51281666-32.39742861-37.02563333v-300.83326844H178.2417157c-18.51281666 4.62820399-37.02563333-13.88461268-37.02563262-32.39742934s18.51281666-32.39742862 32.39742863-32.39742861h300.83326916v-300.83326845c4.62820399-18.51281666 18.51281666-37.02563333 37.02563261-37.02563334s32.39742862 18.51281666 32.39742935 32.39742862v305.46147317h305.46147243c18.51281666 0 32.39742862 18.51281666 32.39742934 32.39742861s-9.25640796 37.02563333-27.76922535 37.02563333z"  horiz-adv-x="1027" />

    


  </font>
</defs>
</svg>
